<svg width="44" height="40" fill="none" xmlns="http://www.w3.org/2000/svg"><g clip-path="url(#a)" fill="#ECD979"><path d="M44 39.5h-1.4V38h1.3v1.4ZM42.6 39.5h-1.4V38h1.4v1.4ZM37 39.5h-1.3V38h1.4v1.4ZM35.7 39.5h-1.4V38h1.4v1.4ZM34.3 39.5H33V38h1.3v1.4ZM26.1 39.5h-1.4V38h1.4v1.4ZM17.9 39.5h-1.4V38h1.4v1.4ZM9.6 39.5H8.3V38h1.3v1.4ZM8.3 39.5H6.9V38h1.4v1.4Z"/><path d="M6.9 39.5H5.5V38H7v1.4ZM1.4 39.5H0V38h1.4v1.4ZM44 38h-1.4v-1.3h1.3V38ZM38.5 38H37v-1.3h1.4V38Z"/><path d="M37 38h-1.3v-1.3h1.4V38ZM35.7 38h-1.4v-1.3h1.4V38ZM26.1 38h-1.4v-1.3h1.4V38ZM24.7 38h-1.3v-1.3h1.3V38ZM19.2 38H18v-1.3h1.3V38ZM17.9 38h-1.4v-1.3h1.4V38ZM8.3 38H6.9v-1.3h1.4V38Z"/><path d="M6.9 38H5.5v-1.3H7V38ZM5.5 38H4.1v-1.3h1.4V38ZM39.8 36.7h-1.3v-1.4h1.3v1.4ZM38.5 36.7H37v-1.4h1.4v1.4Z"/><path d="M37 36.7h-1.3v-1.4h1.4v1.4ZM26.1 36.7h-1.4v-1.4h1.4v1.4ZM24.7 36.7h-1.3v-1.4h1.3v1.4ZM23.4 36.7H22v-1.4h1.4v1.4ZM20.6 36.7h-1.4v-1.4h1.4v1.4Z"/><path d="M19.2 36.7H18v-1.4h1.3v1.4ZM17.9 36.7h-1.4v-1.4h1.4v1.4ZM6.9 36.7H5.5v-1.4H7v1.4ZM5.5 36.7H4.1v-1.4h1.4v1.4ZM4.1 36.7H2.8v-1.4H4v1.4ZM41.2 35.3h-1.4v-1.4h1.4v1.4ZM39.8 35.3h-1.3v-1.4h1.3v1.4ZM38.5 35.3H37v-1.4h1.4v1.4ZM31.6 35.3h-1.4v-1.4h1.4v1.4ZM30.2 35.3h-1.4v-1.4h1.4v1.4ZM28.8 35.3h-1.3v-1.4h1.3v1.4ZM24.7 35.3h-1.3v-1.4h1.3v1.4ZM23.4 35.3H22v-1.4h1.4v1.4ZM20.6 35.3h-1.4v-1.4h1.4v1.4Z"/><path d="M19.2 35.3H18v-1.4h1.3v1.4ZM15.1 35.3h-1.3v-1.4H15v1.4Z"/><path d="M13.8 35.3h-1.4v-1.4h1.4v1.4ZM12.4 35.3H11v-1.4h1.4v1.4ZM5.5 35.3H4.1v-1.4h1.4v1.4ZM4.1 35.3H2.8v-1.4H4v1.4ZM2.8 35.3H1.4v-1.4h1.4v1.4ZM42.6 33.9h-1.4v-1.4h1.4v1.4ZM41.2 33.9h-1.4v-1.4h1.4v1.4ZM39.8 33.9h-1.3v-1.4h1.3v1.4ZM30.2 33.9h-1.4v-1.4h1.4v1.4ZM28.8 33.9h-1.3v-1.4h1.3v1.4ZM27.5 33.9H26v-1.4h1.4v1.4ZM23.4 33.9H22v-1.4h1.4v1.4ZM20.6 33.9h-1.4v-1.4h1.4v1.4ZM16.5 33.9H15v-1.4h1.4v1.4Z"/><path d="M15.1 33.9h-1.3v-1.4H15v1.4Z"/><path d="M13.8 33.9h-1.4v-1.4h1.4v1.4ZM4.1 33.9H2.8v-1.4H4v1.4ZM2.8 33.9H1.4v-1.4h1.4v1.4ZM1.4 33.9H0v-1.4h1.4v1.4ZM42.6 32.5h-1.4v-1.4h1.4v1.4ZM41.2 32.5h-1.4v-1.4h1.4v1.4ZM28.8 32.5h-1.3v-1.4h1.3v1.4ZM27.5 32.5H26v-1.4h1.4v1.4Z"/><path d="M26.1 32.5h-1.4v-1.4h1.4v1.4ZM17.9 32.5h-1.4v-1.4h1.4v1.4ZM16.5 32.5H15v-1.4h1.4v1.4Z"/><path d="M15.1 32.5h-1.3v-1.4H15v1.4ZM2.8 32.5H1.4v-1.4h1.4v1.4ZM1.4 32.5H0v-1.4h1.4v1.4ZM42.6 31.1h-1.4v-1.4h1.4v1.4ZM35.7 31.1h-1.4v-1.4h1.4v1.4ZM23.4 31.1H22v-1.4h1.4v1.4ZM20.6 31.1h-1.4v-1.4h1.4v1.4ZM8.3 31.1H6.9v-1.4h1.4v1.4ZM1.4 31.1H0v-1.4h1.4v1.4ZM35.7 29.7h-1.4v-1.4h1.4v1.4ZM34.3 29.7H33v-1.4h1.3v1.4ZM24.7 29.7h-1.3v-1.4h1.3v1.4ZM23.4 29.7H22v-1.4h1.4v1.4ZM20.6 29.7h-1.4v-1.4h1.4v1.4Z"/><path d="M19.2 29.7H18v-1.4h1.3v1.4ZM9.6 29.7H8.3v-1.4h1.3v1.4ZM8.3 29.7H6.9v-1.4h1.4v1.4ZM35.7 28.3h-1.4V27h1.4v1.4ZM34.3 28.3H33V27h1.3v1.4ZM33 28.3h-1.4V27H33v1.4ZM26.1 28.3h-1.4V27h1.4v1.4ZM24.7 28.3h-1.3V27h1.3v1.4Z"/><path d="M19.2 28.3H18V27h1.3v1.4ZM17.9 28.3h-1.4V27h1.4v1.4ZM11 28.3H9.6V27H11v1.4Z"/><path d="M9.6 28.3H8.3V27h1.3v1.4ZM8.3 28.3H6.9V27h1.4v1.4ZM34.3 27H33v-1.5h1.3V27ZM33 27h-1.4v-1.5H33V27ZM27.5 27H26v-1.5h1.4V27Z"/><path d="M26.1 27h-1.4v-1.5h1.4V27ZM17.9 27h-1.4v-1.5h1.4V27ZM16.5 27H15v-1.5h1.4V27ZM11 27H9.6v-1.5H11V27Z"/><path d="M9.6 27H8.3v-1.5h1.3V27ZM39.8 25.5h-1.3v-1.3h1.3v1.3ZM38.5 25.5H37v-1.3h1.4v1.3Z"/><path d="M37 25.5h-1.3v-1.3h1.4v1.3ZM33 25.5h-1.4v-1.3H33v1.3ZM28.8 25.5h-1.3v-1.3h1.3v1.3ZM27.5 25.5H26v-1.3h1.4v1.3ZM16.5 25.5H15v-1.3h1.4v1.3Z"/><path d="M15.1 25.5h-1.3v-1.3H15v1.3ZM11 25.5H9.6v-1.3H11v1.3ZM6.9 25.5H5.5v-1.3H7v1.3ZM5.5 25.5H4.1v-1.3h1.4v1.3ZM4.1 25.5H2.8v-1.3H4v1.3ZM44 24.2h-1.4v-1.4h1.3v1.4ZM38.5 24.2H37v-1.4h1.4v1.4Z"/><path d="M37 24.2h-1.3v-1.4h1.4v1.4ZM35.7 24.2h-1.4v-1.4h1.4v1.4ZM30.2 24.2h-1.4v-1.4h1.4v1.4ZM28.8 24.2h-1.3v-1.4h1.3v1.4ZM15.1 24.2h-1.3v-1.4H15v1.4Z"/><path d="M13.8 24.2h-1.4v-1.4h1.4v1.4ZM8.3 24.2H6.9v-1.4h1.4v1.4Z"/><path d="M6.9 24.2H5.5v-1.4H7v1.4ZM5.5 24.2H4.1v-1.4h1.4v1.4ZM44 22.8h-1.4v-1.4h1.3v1.4ZM42.6 22.8h-1.4v-1.4h1.4v1.4ZM37 22.8h-1.3v-1.4h1.4v1.4ZM35.7 22.8h-1.4v-1.4h1.4v1.4ZM34.3 22.8H33v-1.4h1.3v1.4ZM31.6 22.8h-1.4v-1.4h1.4v1.4ZM30.2 22.8h-1.4v-1.4h1.4v1.4ZM22 22.8h-1.4v-1.4H22v1.4ZM13.8 22.8h-1.4v-1.4h1.4v1.4ZM12.4 22.8H11v-1.4h1.4v1.4ZM9.6 22.8H8.3v-1.4h1.3v1.4ZM8.3 22.8H6.9v-1.4h1.4v1.4Z"/><path d="M6.9 22.8H5.5v-1.4H7v1.4ZM1.4 21.4H0V20h1.4v1.4ZM2.8 21.4H1.4V20h1.4v1.4ZM1.4 22.8H0v-1.4h1.4v1.4ZM1.4 20H0v-1.4h1.4V20ZM44 21.4h-1.4V20h1.3v1.4ZM42.6 21.4h-1.4V20h1.4v1.4ZM41.2 21.4h-1.4V20h1.4v1.4ZM23.4 21.4H22V20h1.4v1.4ZM22 21.4h-1.4V20H22v1.4ZM20.6 21.4h-1.4V20h1.4v1.4ZM44 20h-1.4v-1.4h1.3V20ZM42.6 20h-1.4v-1.4h1.4V20ZM37 20h-1.3v-1.4h1.4V20ZM35.7 20h-1.4v-1.4h1.4V20ZM34.3 20H33v-1.4h1.3V20ZM31.6 20h-1.4v-1.4h1.4V20ZM30.2 20h-1.4v-1.4h1.4V20ZM22 20h-1.4v-1.4H22V20ZM13.8 20h-1.4v-1.4h1.4V20ZM12.4 20H11v-1.4h1.4V20ZM9.6 20H8.3v-1.4h1.3V20ZM8.3 20H6.9v-1.4h1.4V20Z"/><path d="M6.9 20H5.5v-1.4H7V20ZM44 18.6h-1.4v-1.4h1.3v1.4ZM38.5 18.6H37v-1.4h1.4v1.4Z"/><path d="M37 18.6h-1.3v-1.4h1.4v1.4ZM35.7 18.6h-1.4v-1.4h1.4v1.4ZM30.2 18.6h-1.4v-1.4h1.4v1.4ZM28.8 18.6h-1.3v-1.4h1.3v1.4ZM15.1 18.6h-1.3v-1.4H15v1.4Z"/><path d="M13.8 18.6h-1.4v-1.4h1.4v1.4ZM8.3 18.6H6.9v-1.4h1.4v1.4Z"/><path d="M6.9 18.6H5.5v-1.4H7v1.4ZM5.5 18.6H4.1v-1.4h1.4v1.4ZM39.8 17.2h-1.3v-1.4h1.3v1.4ZM38.5 17.2H37v-1.4h1.4v1.4Z"/><path d="M37 17.2h-1.3v-1.4h1.4v1.4ZM33 17.2h-1.4v-1.4H33v1.4ZM28.8 17.2h-1.3v-1.4h1.3v1.4ZM27.5 17.2H26v-1.4h1.4v1.4ZM16.5 17.2H15v-1.4h1.4v1.4Z"/><path d="M15.1 17.2h-1.3v-1.4H15v1.4ZM11 17.2H9.6v-1.4H11v1.4ZM6.9 17.2H5.5v-1.4H7v1.4ZM5.5 17.2H4.1v-1.4h1.4v1.4ZM4.1 17.2H2.8v-1.4H4v1.4ZM34.3 15.8H33v-1.4h1.3v1.4ZM33 15.8h-1.4v-1.4H33v1.4ZM27.5 15.8H26v-1.4h1.4v1.4Z"/><path d="M26.1 15.8h-1.4v-1.4h1.4v1.4ZM17.9 15.8h-1.4v-1.4h1.4v1.4ZM16.5 15.8H15v-1.4h1.4v1.4ZM11 15.8H9.6v-1.4H11v1.4Z"/><path d="M9.6 15.8H8.3v-1.4h1.3v1.4ZM35.7 14.4h-1.4V13h1.4v1.4ZM34.3 14.4H33V13h1.3v1.4ZM33 14.4h-1.4V13H33v1.4ZM26.1 14.4h-1.4V13h1.4v1.4ZM24.7 14.4h-1.3V13h1.3v1.4ZM19.2 14.4H18V13h1.3v1.4ZM17.9 14.4h-1.4V13h1.4v1.4ZM11 14.4H9.6V13H11v1.4Z"/><path d="M9.6 14.4H8.3V13h1.3v1.4ZM8.3 14.4H6.9V13h1.4v1.4ZM35.7 13h-1.4v-1.4h1.4V13ZM34.3 13H33v-1.4h1.3V13ZM24.7 13h-1.3v-1.4h1.3V13ZM23.4 13H22v-1.4h1.4V13ZM20.6 13h-1.4v-1.4h1.4V13Z"/><path d="M19.2 13H18v-1.4h1.3V13ZM9.6 13H8.3v-1.4h1.3V13ZM8.3 13H6.9v-1.4h1.4V13ZM35.7 11.6h-1.4v-1.4h1.4v1.4ZM23.4 11.6H22v-1.4h1.4v1.4ZM20.6 11.6h-1.4v-1.4h1.4v1.4ZM8.3 11.6H6.9v-1.4h1.4v1.4ZM42.6 10.2h-1.4V8.8h1.4v1.4ZM1.4 10.2H0V8.8h1.4v1.4ZM42.6 8.8h-1.4V7.5h1.4v1.3ZM41.2 8.8h-1.4V7.5h1.4v1.3ZM28.8 8.8h-1.3V7.5h1.3v1.3ZM27.5 8.8H26V7.5h1.4v1.3Z"/><path d="M26.1 8.8h-1.4V7.5h1.4v1.3ZM17.9 8.8h-1.4V7.5h1.4v1.3ZM16.5 8.8H15V7.5h1.4v1.3Z"/><path d="M15.1 8.8h-1.3V7.5H15v1.3ZM2.8 8.8H1.4V7.5h1.4v1.3ZM1.4 8.8H0V7.5h1.4v1.3ZM42.6 7.5h-1.4V6h1.4v1.4ZM41.2 7.5h-1.4V6h1.4v1.4ZM39.8 7.5h-1.3V6h1.3v1.4ZM30.2 7.5h-1.4V6h1.4v1.4ZM28.8 7.5h-1.3V6h1.3v1.4ZM27.5 7.5H26V6h1.4v1.4ZM23.4 7.5H22V6h1.4v1.4ZM20.6 7.5h-1.4V6h1.4v1.4ZM16.5 7.5H15V6h1.4v1.4Z"/><path d="M15.1 7.5h-1.3V6H15v1.4Z"/><path d="M13.8 7.5h-1.4V6h1.4v1.4ZM4.1 7.5H2.8V6H4v1.4ZM2.8 7.5H1.4V6h1.4v1.4ZM1.4 7.5H0V6h1.4v1.4ZM41.2 6h-1.4V4.8h1.4V6ZM39.8 6h-1.3V4.8h1.3V6ZM38.5 6H37V4.8h1.4V6ZM31.6 6h-1.4V4.8h1.4V6ZM30.2 6h-1.4V4.8h1.4V6ZM28.8 6h-1.3V4.8h1.3V6ZM24.7 6h-1.3V4.8h1.3V6ZM23.4 6H22V4.8h1.4V6ZM20.6 6h-1.4V4.8h1.4V6Z"/><path d="M19.2 6H18V4.8h1.3V6ZM15.1 6h-1.3V4.8H15V6Z"/><path d="M13.8 6h-1.4V4.8h1.4V6ZM12.4 6H11V4.8h1.4V6ZM5.5 6H4.1V4.8h1.4V6ZM4.1 6H2.8V4.8H4V6ZM2.8 6H1.4V4.8h1.4V6ZM39.8 4.7h-1.3V3.3h1.3v1.4ZM38.5 4.7H37V3.3h1.4v1.4Z"/><path d="M37 4.7h-1.3V3.3h1.4v1.4ZM26.1 4.7h-1.4V3.3h1.4v1.4ZM24.7 4.7h-1.3V3.3h1.3v1.4ZM23.4 4.7H22V3.3h1.4v1.4ZM20.6 4.7h-1.4V3.3h1.4v1.4Z"/><path d="M19.2 4.7H18V3.3h1.3v1.4ZM17.9 4.7h-1.4V3.3h1.4v1.4ZM6.9 4.7H5.5V3.3H7v1.4ZM5.5 4.7H4.1V3.3h1.4v1.4ZM4.1 4.7H2.8V3.3H4v1.4ZM44 3.3h-1.4V1.9h1.3v1.4ZM38.5 3.3H37V1.9h1.4v1.4Z"/><path d="M37 3.3h-1.3V1.9h1.4v1.4ZM35.7 3.3h-1.4V1.9h1.4v1.4ZM26.1 3.3h-1.4V1.9h1.4v1.4ZM24.7 3.3h-1.3V1.9h1.3v1.4ZM19.2 3.3H18V1.9h1.3v1.4ZM17.9 3.3h-1.4V1.9h1.4v1.4ZM8.3 3.3H6.9V1.9h1.4v1.4Z"/><path d="M6.9 3.3H5.5V1.9H7v1.4ZM5.5 3.3H4.1V1.9h1.4v1.4ZM44 1.9h-1.4V.5h1.3v1.4ZM42.6 1.9h-1.4V.5h1.4v1.4ZM37 1.9h-1.3V.5h1.4v1.4ZM35.7 1.9h-1.4V.5h1.4v1.4ZM34.3 1.9H33V.5h1.3v1.4ZM26.1 1.9h-1.4V.5h1.4v1.4ZM17.9 1.9h-1.4V.5h1.4v1.4ZM9.6 1.9H8.3V.5h1.3v1.4ZM8.3 1.9H6.9V.5h1.4v1.4Z"/><path d="M6.9 1.9H5.5V.5H7v1.4ZM1.4 1.9H0V.5h1.4v1.4Z"/></g><defs><clipPath id="a"><path fill="#fff" transform="translate(0 .5)" d="M0 0h44v39H0z"/></clipPath></defs></svg>